<svg xmlns="http://www.w3.org/2000/svg" viewBox="0 0 410 404"><defs><linearGradient id="a" x1="3.4%" x2="136.4%" y1="-2.9%" y2="146.1%"><stop stop-color="#41D1FF" offset="0%"/><stop stop-color="#BD34FE" offset="100%"/></linearGradient><linearGradient id="b" x1="43.7%" x2="50.4%" y1="2.2%" y2="89.9%"><stop stop-color="#FFEA83" offset="0%"/><stop stop-color="#FFDD35" offset="8.3%"/><stop stop-color="#FFA800" offset="100%"/></linearGradient></defs><g fill="none" fill-rule="evenodd"><path fill="url(#a)" d="M399.8 59.3 215.6 388.6c-3.9 7-14.3 7.1-18.3.2L10.4 59.3c-4.2-7.3 1.3-16.3 9.6-15.2l187.9 25.3a10.5 10.5 0 0 0 2.9 0l179.4-25.2c8.4-1.2 14 8 9.7 15.3Z"/><path fill="url(#b)" d="m284.2 33.3-89.5 26.3a10.7 10.7 0 0 0-7.5 8.6l-12.7 93.7a10.7 10.7 0 0 0 13.3 11.6l24.7-6.3c9.3-2.4 17.6 6.4 14.9 15.6l-36.5 126.4c-2.9 10 11.4 15.8 17.1 7.3l1-1.5 113-183.8c5.6-9.1-2.5-20.3-12.8-17.6l-25.4 6.6c-9.5 2.5-17.9-6.7-15-16.1l24.9-81.2c2.8-9.1-5.9-17.7-15-14.9Z"/></g></svg>
